<svg width="28" height="28" viewBox="0 0 28 28" fill="none" xmlns="http://www.w3.org/2000/svg">
<g clip-path="url(#clip0_4_172)">
<path d="M4.66663 8.16666V6.99999C4.66663 6.38115 4.91246 5.78766 5.35004 5.35007C5.78763 4.91249 6.38112 4.66666 6.99996 4.66666H9.33329" stroke="#4A89DC" stroke-width="2.33333" stroke-linecap="round" stroke-linejoin="round"/>
<path d="M4.66663 19.8333V21C4.66663 21.6188 4.91246 22.2123 5.35004 22.6499C5.78763 23.0875 6.38112 23.3333 6.99996 23.3333H9.33329" stroke="#4A89DC" stroke-width="2.33333" stroke-linecap="round" stroke-linejoin="round"/>
<path d="M18.6666 4.66666H21C21.6188 4.66666 22.2123 4.91249 22.6499 5.35007C23.0875 5.78766 23.3333 6.38115 23.3333 6.99999V8.16666" stroke="#4A89DC" stroke-width="2.33333" stroke-linecap="round" stroke-linejoin="round"/>
<path d="M18.6666 23.3333H21C21.6188 23.3333 22.2123 23.0875 22.6499 22.6499C23.0875 22.2123 23.3333 21.6188 23.3333 21V19.8333" stroke="#4A89DC" stroke-width="2.33333" stroke-linecap="round" stroke-linejoin="round"/>
<path d="M5.83337 12.8333H7.00004V15.1667H5.83337V12.8333Z" stroke="#4A89DC" stroke-width="2.33333" stroke-linecap="round" stroke-linejoin="round"/>
<path d="M11.6666 12.8333V15.1667" stroke="#4A89DC" stroke-width="2.33333" stroke-linecap="round" stroke-linejoin="round"/>
<path d="M16.3334 12.8333H17.5V15.1667H16.3334V12.8333Z" stroke="#4A89DC" stroke-width="2.33333" stroke-linecap="round" stroke-linejoin="round"/>
<path d="M22.1666 12.8333V15.1667" stroke="#4A89DC" stroke-width="2.33333" stroke-linecap="round" stroke-linejoin="round"/>
</g>
<defs>
<clipPath id="clip0_4_172">
<rect width="28" height="28" fill="white"/>
</clipPath>
</defs>
</svg>
